<?xml version="1.0" encoding="iso-8859-1"?>
<!-- Generator: Adobe Illustrator 19.0.0, SVG Export Plug-In . SVG Version: 6.00 Build 0)  -->
<svg version="1.1" id="Layer_1" xmlns="http://www.w3.org/2000/svg" xmlns:xlink="http://www.w3.org/1999/xlink" x="0px" y="0px"
	 viewBox="0 0 511.999 511.999" style="enable-background:new 0 0 511.999 511.999;" xml:space="preserve">
<path style="fill:#54BCE8;" d="M320.045,196.103c44.214,0,79.93,35.789,79.93,80.004c0,5.306,0,16.011,0,16.011
	c27.126,0,48.161,21.878,48.161,47.96h24.017c17.686,0,32.023,14.135,32.023,31.821c0,17.685-14.337,31.821-32.023,31.821H111.899
	c-57.478,0-104.073-46.357-104.073-103.834s46.596-103.954,104.073-103.954c0-48.635,39.427-87.976,88.062-87.976
	s88.063,39.113,88.063,88.148h32.022V196.103z"/>
<path style="fill:#29ABE2;" d="M79.876,299.885c0-57.478,46.596-103.954,104.073-103.954c0-35.787,21.382-66.463,52.037-80.24
	c-11.007-4.946-23.177-7.733-36.025-7.733c-48.635,0-88.062,39.441-88.062,88.077c-57.478,0-104.074,46.364-104.074,103.841
	S54.42,403.718,111.898,403.718h72.051C126.472,403.719,79.876,357.362,79.876,299.885z"/>
<path d="M472.152,412.065H111.899C50.197,412.065,0,361.858,0,300.145c0-59.176,46.166-107.772,104.368-111.658
	c3.865-49.477,45.263-88.553,95.592-88.553c50.232,0,91.567,38.726,95.569,87.823h24.516c48.675,0,88.275,39.634,88.275,88.351
	v8.745c24.371,3.51,43.7,23.164,47.105,47.924h16.725c21.973,0,39.848,17.785,39.848,39.645S494.124,412.065,472.152,412.065z
	 M111.899,203.406c-53.071,0-96.249,43.422-96.249,96.5c0,53.084,43.178,96.51,96.249,96.51h360.254
	c13.343,0,24.198-10.764,24.198-23.996s-10.855-23.996-24.198-23.996h-31.489v-7.825c0-22.418-18.213-40.167-40.167-40.167h-7.825
	v-24.326c0-40.088-32.58-72.701-72.626-72.701h-40.05v-7.825c0-44.111-36.091-79.998-80.334-79.998s-80.334,36.102-80.334,80.478
	v7.345L111.899,203.406L111.899,203.406z"/>
<g>
	<path style="fill:#FFFFFF;" d="M159.752,187.756h-15.649c0-30.256,25.304-55.571,55.56-55.571v15.649
		C177.753,147.835,159.752,165.847,159.752,187.756z"/>
	<path style="fill:#FFFFFF;" d="M160.017,379.723h-48.118c-44.02,0-79.834-35.472-79.834-80.334h15.649
		c0,35.472,28.793,64.684,64.185,64.684h48.118V379.723z"/>
	<rect x="175.67" y="364.068" style="fill:#FFFFFF;" width="32.342" height="15.649"/>
</g>
<g>
</g>
<g>
</g>
<g>
</g>
<g>
</g>
<g>
</g>
<g>
</g>
<g>
</g>
<g>
</g>
<g>
</g>
<g>
</g>
<g>
</g>
<g>
</g>
<g>
</g>
<g>
</g>
<g>
</g>
</svg>
